<svg width="104" height="88" viewBox="0 0 104 88" fill="none" xmlns="http://www.w3.org/2000/svg">
<path fill-rule="evenodd" clip-rule="evenodd" d="M0 29.7288V0.412598H67.0713V12.9766H49.9308V29.7288H0ZM67.0713 17.1648V19.5644C67.0713 25.1579 62.4146 29.7157 56.694 29.7289H54.2161V17.1648H67.0713Z" fill="#F8A600"/>
<path fill-rule="evenodd" clip-rule="evenodd" d="M18.1757 63.2332C8.17767 63.2252 0 55.228 0 45.4545V33.917H49.9308V50.6693H67.0713V63.2332H18.1757ZM67.0713 46.4811V44.0815C67.0713 38.488 62.4146 33.9302 56.694 33.917H54.2161V46.4811H67.0713Z" fill="#F27E00"/>
<path fill-rule="evenodd" clip-rule="evenodd" d="M85.8192 0.412598C95.8196 0.417953 104 8.4162 104 18.1913V29.7288H88.4969V12.9766H71.3564V0.412598H85.8192ZM71.3564 17.1648V19.5644C71.3564 25.1579 76.0131 29.7157 81.7338 29.7289H84.2117V17.1648H71.3564Z" fill="#FDC900"/>
<path fill-rule="evenodd" clip-rule="evenodd" d="M104 63.2332H71.3564V50.6693H88.4969V33.917H104V63.2332ZM71.3564 46.4811V44.0815C71.3564 38.488 76.0131 33.9302 81.7338 33.917H84.2117V46.4811H71.3564Z" fill="#EC520D"/>
<path fill-rule="evenodd" clip-rule="evenodd" d="M0 87.9295V77.2682C0 74.1499 2.59971 71.6096 5.79063 71.6096H18.172V87.9295H14.2376V84.2315H3.93472V87.9295H0ZM3.93472 80.9356H14.2376V74.9055H6.35307C5.02627 74.9055 3.93472 75.9705 3.93472 77.2682V80.9356ZM21.2768 77.2681C21.2768 74.1497 23.8775 71.6095 27.0681 71.6095H39.6296V78.5732C39.6296 81.6903 37.0292 84.2315 33.8396 84.2315H25.2138V87.9295H21.2768V77.2681ZM25.2138 80.9355H33.2768C34.6053 80.9355 35.6945 79.8716 35.6945 78.5732V74.9055H27.6286C26.3005 74.9055 25.2138 75.9703 25.2138 77.2681V80.9355ZM42.7344 87.9295V84.952V84.6333V77.2681C42.7344 74.1497 45.3345 71.6095 48.5258 71.6095H61.0866V74.9055H49.0873C47.7595 74.9055 46.6699 75.9688 46.6699 77.2681V77.6405H61.0866V82.2716C61.0866 85.389 58.4872 87.9295 55.2963 87.9295H42.7344ZM46.6699 80.9355V84.6333H54.7345C56.0642 84.6333 57.1519 83.5696 57.1519 82.2716V80.9355H46.6699ZM68.1262 84.6333H76.1902C77.5206 84.6333 78.6079 83.5696 78.6079 82.2716V74.9055H70.5436C69.2132 74.9055 68.1262 75.9685 68.1262 77.2681V84.6333ZM64.1915 87.9295V77.2681C64.1915 74.1497 66.7899 71.6095 69.9802 71.6095H82.5423V82.2716C82.5423 85.3893 79.9446 87.9295 76.752 87.9295H64.1915ZM85.6472 77.2681C85.6472 74.1497 88.2479 71.6095 91.4385 71.6095H104V78.5732C104 81.6903 101.4 84.2315 98.21 84.2315H89.5843V87.9295H85.6472V77.2681ZM89.5843 80.9355H97.6472C98.9757 80.9355 100.065 79.8716 100.065 78.5732V74.9055H91.999C90.6709 74.9055 89.5843 75.9703 89.5843 77.2681V80.9355Z" fill="#151616"/>
</svg>