<?xml version="1.0" standalone="no"?>
<!DOCTYPE svg PUBLIC "-//W3C//DTD SVG 20010904//EN"
 "http://www.w3.org/TR/2001/REC-SVG-20010904/DTD/svg10.dtd">
<svg version="1.0" xmlns="http://www.w3.org/2000/svg"
 width="126.000000pt" height="126.000000pt" viewBox="0 0 126.000000 126.000000"
 preserveAspectRatio="xMidYMid meet">
<metadata>
Created by potrace 1.14, written by Peter Selinger 2001-2017
</metadata>
<g transform="translate(0.000000,126.000000) scale(0.100000,-0.100000)"
fill="#000000" stroke="none">
<path d="M0 835 c0 -133 3 -175 13 -176 16 -1 547 -1 570 0 15 1 17 13 17 101
l0 100 103 0 104 0 0 75 0 75 -404 0 -403 0 0 -175z"/>
<path d="M859 995 c0 -8 0 -35 0 -60 0 -25 0 -52 0 -60 1 -12 19 -15 101 -15
88 0 100 -2 101 -17 1 -10 2 -52 3 -95 0 -42 4 -79 8 -83 4 -4 44 -8 90 -8
l83 -1 3 89 c4 130 -30 198 -122 241 -44 20 -66 24 -158 24 -89 0 -108 -3
-109 -15z"/>
<path d="M650 735 l0 -75 33 0 c64 0 113 46 121 113 l4 37 -79 0 -79 0 0 -75z"/>
<path d="M860 780 c0 -63 48 -114 115 -122 l30 -3 3 78 3 77 -76 0 -75 0 0
-30z"/>
<path d="M0 527 c0 -45 5 -99 11 -120 13 -48 60 -102 113 -129 39 -21 55 -22
351 -23 171 -1 315 0 321 2 6 2 10 33 10 76 l-1 72 -102 0 -103 0 0 102 0 102
-300 0 -300 -1 0 -81z"/>
<path d="M652 532 l3 -77 68 0 c82 -1 99 16 74 74 -12 27 -55 70 -72 72 -5 0
-25 2 -43 4 l-33 3 3 -76z"/>
<path d="M944 599 c-47 -14 -77 -52 -78 -101 l-1 -41 73 -1 72 -1 0 78 c0 85
-1 85 -66 66z"/>
<path d="M1069 607 c-1 -1 -3 -40 -4 -87 -2 -47 -3 -92 -4 -100 -1 -13 -18
-15 -97 -15 -52 0 -98 -3 -100 -7 -5 -7 -8 -103 -5 -133 1 -6 71 -10 194 -10
l192 0 3 177 2 177 -90 0 c-49 0 -91 -1 -91 -2z"/>
</g>
</svg>
